<svg viewBox="-250.03859481379033 0 500.07718962758065 100" xmlns="http://www.w3.org/2000/svg" xmlns:xlink="http://www.w3.org/1999/xlink" version="1.1" class="jsx-2263963463 artboard-inner" style="width: 480px; height: 95.9852px; max-height: 100%;">
    <g transform="translate(-250.03184142232155 73.1358529111338) scale(1.4186811939620925)" fill="#232323">
        <g id="line1">
            <path d="M53.496 14.328C50.832 12.888 49.608 9.072 48.744 5.256L48.024 1.512L47.952 1.368L40.176-35.928C39.312-40.392 39.312-46.800 43.056-49.320C43.344-49.608 43.488-49.968 43.488-50.328C43.416-50.760 43.128-51.048 42.696-51.192C42.048-51.408 41.112-51.552 39.888-51.552C36.144-51.552 35.640-49.896 33.192-49.896C30.744-49.896 29.808-51.552 25.272-51.552C12.888-51.552 12.744-37.872 20.016-37.872C20.016-37.872 22.104-37.872 23.472-39.096C24.048-39.600 23.904-40.608 23.112-40.896C20.016-41.832 21.240-47.520 25.128-47.520C26.496-47.520 28.656-46.800 28.656-45.216C28.656-43.776 25.992-32.760 22.320-20.952C21.168-21.096 20.088-21.240 18.936-21.240C5.112-21.240 2.952-6.552 10.008-5.688C10.224-5.688 10.440-5.760 10.584-5.976C10.656-6.192 10.656-6.408 10.584-6.696C9.720-8.784 12.096-13.608 19.800-13.608L19.872-13.608C15.624-1.224 10.440 10.080 6.192 10.080C6.192 10.080 2.016 10.728 2.016 7.128C2.016 7.128 2.016 6.984 2.088 6.840C2.088 6.552 2.016 6.336 1.800 6.264C1.584 6.120 1.368 6.192 1.152 6.336C-0.144 7.704 0 10.656 0 10.656C0 10.656 0.360 18.936 7.488 18.936C15.552 18.936 21.672 3.168 25.920-12.600C34.128-9.864 38.952-1.800 40.464 5.472L40.752 6.912C41.400 9.648 40.680 10.224 40.032 10.512C39.384 10.872 39.744 11.448 40.104 11.448L41.256 11.448L41.400 11.448C42.984 11.448 44.640 11.592 47.520 13.968C50.472 16.416 52.992 16.344 54.648 16.344C55.224 16.344 55.368 16.128 55.368 15.768C55.368 15.120 54.576 14.976 53.496 14.328ZM27.576-19.224C29.304-26.280 30.600-32.904 31.536-37.512L36.936-11.736C34.128-15.048 30.960-17.568 27.576-19.224Z"></path>
            <path d="M81.432-31.104L79.776-31.104L74.952-31.104L73.296-31.104C73.008-31.104 72.792-30.672 73.296-30.240C73.872-29.736 74.952-29.304 74.952-27.792L74.952-5.040C74.952-2.592 74.160 1.872 68.112 1.872C66.888 1.872 61.632 1.872 61.632-5.040L61.632-27.792C61.632-29.304 62.712-29.736 63.288-30.240C63.864-30.672 63.648-31.104 63.288-31.104L61.632-31.104L53.280-31.104L51.624-31.104C51.408-31.104 51.120-30.672 51.624-30.240C52.200-29.736 53.280-29.304 53.280-27.792L53.280-5.040C53.280-1.800 54.504 5.544 67.248 5.544C78.912 5.544 79.776-2.376 79.776-5.040L79.776-27.792C79.776-29.304 80.928-29.736 81.432-30.240C82.008-30.672 81.720-31.104 81.432-31.104Z"></path>
            <path d="M111.528-4.320C111.096-4.608 110.520-4.464 110.304-3.960C109.656-2.160 105.336-0.936 103.104-7.128C102.816-7.992 102.456-8.712 102.168-9.360C114.048-12.024 114.696-31.104 99.864-31.104L85.752-31.104L84.096-31.104C83.808-31.104 83.520-30.672 84.096-30.168C84.672-29.664 85.752-29.232 85.752-27.720L85.752 0.936C85.752 3.600 84.744 4.320 84.096 4.680C83.448 4.968 83.808 5.544 84.096 5.544L95.760 5.544C96.048 5.544 96.408 4.968 95.760 4.680C95.112 4.320 94.104 3.600 94.104 0.936L94.104-9.072L95.760-9.072C100.728-5.688 97.200 5.544 106.344 5.544C114.624 5.544 114.336-2.232 111.528-4.320ZM96.840-13.176L94.104-13.176L94.104-27.072L97.200-27.072C106.560-27.072 105.408-13.176 96.840-13.176Z"></path>
            <path d="M130.032-31.104C122.184-31.104 115.776-22.896 115.776-12.816C115.776-2.592 122.184 5.544 130.032 5.544C137.880 5.544 144.288-2.592 144.288-12.816C144.288-22.896 137.880-31.104 130.032-31.104ZM130.032 1.656C126.720 1.656 124.056-4.824 124.056-12.816C124.056-20.736 126.720-27.216 130.032-27.216C133.344-27.216 136.008-20.736 136.008-12.816C136.008-4.824 133.344 1.656 130.032 1.656Z"></path>
            <path d="M168.192-51.552C142.272-51.552 142.632-20.880 154.944-20.880C156.816-20.880 157.608-21.960 157.896-22.752C158.040-22.968 158.040-23.184 157.896-23.400C157.752-23.616 157.608-23.760 157.392-23.832C150.408-25.272 151.632-46.872 168.336-47.520C189.720-47.520 185.184-15.696 172.152-15.696L172.152-31.896L172.152-32.040C172.152-34.704 172.224-39.672 174.600-41.112C175.680-41.760 176.040-41.904 176.040-42.552C176.040-42.840 175.896-43.344 175.320-43.344C167.184-43.344 167.040-39.096 162.144-39.096C161.856-39.096 161.496-38.448 162.144-38.160C162.792-37.800 163.800-37.080 163.800-34.416L163.800 6.840C163.800 9.432 162.792 10.224 162.144 10.512C161.496 10.872 161.856 11.448 162.144 11.448C163.224 11.448 165.312 11.952 168.480 15.048C171.720 18.216 175.248 18.936 177.624 18.936C178.200 18.936 178.344 18.648 178.344 18.360C178.344 17.712 176.976 17.352 175.968 16.704C172.584 14.616 172.152 8.352 172.152 5.544L172.152-12.168C193.248-12.168 201.528-51.552 168.192-51.552Z"></path>
            <path d="M227.952 4.680C227.376 4.248 226.080 3.888 224.712-0.072L217.440-27.720C217.008-29.232 217.440-29.520 218.160-30.168C218.736-30.672 218.520-31.104 218.160-31.104L208.224-31.104L206.784-31.104C206.496-31.104 206.208-30.672 206.784-30.168C207.288-29.736 208.080-29.376 207.792-28.080L198-0.072C196.632 3.888 194.688 4.248 194.112 4.680C193.536 5.040 193.752 5.544 194.112 5.544L203.544 5.544C203.832 5.544 203.976 4.968 203.544 4.680C203.112 4.392 201.600 3.384 202.320 0.504L204.552-5.688L215.856-2.016C216.432 0.216 217.512 3.600 215.352 4.680C214.776 4.896 215.064 5.544 215.352 5.544L227.952 5.544C228.240 5.544 228.528 5.040 227.952 4.680ZM206.064-10.152L210.456-22.680L214.488-7.416L206.064-10.152Z"></path>
            <path d="M257.544-4.320C257.112-4.608 256.536-4.464 256.320-3.960C255.672-2.160 251.352-0.936 249.120-7.128C248.832-7.992 248.472-8.712 248.184-9.360C260.064-12.024 260.712-31.104 245.880-31.104L231.768-31.104L230.112-31.104C229.824-31.104 229.536-30.672 230.112-30.168C230.688-29.664 231.768-29.232 231.768-27.720L231.768 0.936C231.768 3.600 230.760 4.320 230.112 4.680C229.464 4.968 229.824 5.544 230.112 5.544L241.776 5.544C242.064 5.544 242.424 4.968 241.776 4.680C241.128 4.320 240.120 3.600 240.120 0.936L240.120-9.072L241.776-9.072C246.744-5.688 243.216 5.544 252.360 5.544C260.640 5.544 260.352-2.232 257.544-4.320ZM242.856-13.176L240.120-13.176L240.120-27.072L243.216-27.072C252.576-27.072 251.424-13.176 242.856-13.176Z"></path>
            <path d="M270.504-24.120C270.504-25.272 271.584-27.648 276.120-27.648C282.168-27.648 284.400-24.120 281.520-20.808C281.304-20.592 281.232-20.376 281.304-20.088C281.376-19.872 281.592-19.656 281.808-19.584C285.120-18.216 288.000-21.384 287.928-24.840C287.928-28.224 284.976-31.752 275.688-31.752C273.384-31.752 262.512-31.896 262.512-22.320C262.512-12.816 279.864-13.752 279.864-3.384C279.864-1.152 278.208 1.728 274.392 1.728C264.384 1.728 268.272-7.776 271.080-4.320C271.152-4.176 271.296-4.104 271.512-4.104C274.104-4.392 274.968-10.152 268.272-10.152C259.488-10.152 257.760 6.192 275.040 6.192C277.848 6.192 287.712 6.480 289.008-3.816C290.592-16.776 270.504-16.200 270.504-24.120Z"></path>
            <path d="M319.104-2.016C318.384-2.016 317.160-2.016 316.656-2.016C315.288-2.016 315.144-1.440 313.272 0.504C312.120 1.728 310.536 2.376 308.952 2.376L305.640 2.376C301.824 2.376 301.752-1.584 301.752-4.464L301.752-4.608C301.752-14.184 311.904-14.472 310.320-8.352C310.320-8.136 310.320-7.992 310.536-7.848C310.680-7.704 310.896-7.704 311.112-7.776C315.504-10.080 315.360-18.072 308.232-18.072C303.408-18.072 301.752-14.544 301.752-14.544L301.752-27.072L308.232-27.072C309.816-27.072 311.400-26.712 312.480-25.560C314.424-23.616 314.640-23.040 315.936-23.040C316.440-23.040 317.592-23.040 318.384-23.040C319.320-23.040 319.968-23.832 319.464-24.912L316.944-29.808C316.440-30.672 315.576-31.104 314.640-31.104C307.584-31.104 300.456-31.104 293.400-31.104L291.744-31.104C291.456-31.104 291.168-30.672 291.744-30.168C292.320-29.664 293.400-29.232 293.400-27.720L293.400 0.936C293.400 3.600 292.392 4.320 291.744 4.680C291.096 4.968 291.456 5.616 291.744 5.616C299.664 5.616 307.584 5.616 315.504 5.616C316.440 5.616 317.304 5.112 317.736 4.248L320.184-0.144C320.760-1.224 320.040-2.016 319.104-2.016Z"></path>
            <path d="M350.712-4.320C350.280-4.608 349.704-4.464 349.488-3.960C348.840-2.160 344.520-0.936 342.288-7.128C342-7.992 341.640-8.712 341.352-9.360C353.232-12.024 353.880-31.104 339.048-31.104L324.936-31.104L323.280-31.104C322.992-31.104 322.704-30.672 323.280-30.168C323.856-29.664 324.936-29.232 324.936-27.720L324.936 0.936C324.936 3.600 323.928 4.320 323.280 4.680C322.632 4.968 322.992 5.544 323.280 5.544L334.944 5.544C335.232 5.544 335.592 4.968 334.944 4.680C334.296 4.320 333.288 3.600 333.288 0.936L333.288-9.072L334.944-9.072C339.912-5.688 336.384 5.544 345.528 5.544C353.808 5.544 353.520-2.232 350.712-4.320ZM336.024-13.176L333.288-13.176L333.288-27.072L336.384-27.072C345.744-27.072 344.592-13.176 336.024-13.176Z"></path>
        </g>
    </g>
</svg>
